<mxfile host="65bd71144e">
    <diagram id="fkneGZ4vaJ3mjAJDXdhu" name="Page-1">
        <mxGraphModel dx="1119" dy="790" grid="1" gridSize="10" guides="1" tooltips="1" connect="1" arrows="1" fold="1" page="1" pageScale="1" pageWidth="850" pageHeight="1100" math="0" shadow="0">
            <root>
                <mxCell id="0"/>
                <mxCell id="1" parent="0"/>
                <mxCell id="7" style="edgeStyle=none;html=1;" parent="1" source="2" target="8" edge="1">
                    <mxGeometry relative="1" as="geometry">
                        <mxPoint x="130" y="150" as="targetPoint"/>
                    </mxGeometry>
                </mxCell>
                <mxCell id="2" value="TERC" style="whiteSpace=wrap;html=1;aspect=fixed;" parent="1" vertex="1">
                    <mxGeometry x="70" y="400" width="120" height="120" as="geometry"/>
                </mxCell>
                <mxCell id="3" value="SIMC" style="whiteSpace=wrap;html=1;aspect=fixed;" parent="1" vertex="1">
                    <mxGeometry x="365" y="550" width="120" height="120" as="geometry"/>
                </mxCell>
                <mxCell id="4" value="ULIC" style="whiteSpace=wrap;html=1;aspect=fixed;" parent="1" vertex="1">
                    <mxGeometry x="660" y="600" width="120" height="120" as="geometry"/>
                </mxCell>
                <mxCell id="5" value="How the reviewing in Teryt works?&lt;br&gt;Here it is a simple pattern." style="rounded=1;whiteSpace=wrap;html=1;fillColor=#60a917;fontColor=#ffffff;strokeColor=#2D7600;" parent="1" vertex="1">
                    <mxGeometry x="505" y="120" width="255" height="110" as="geometry"/>
                </mxCell>
                <mxCell id="9" style="edgeStyle=none;html=1;entryX=0;entryY=0.5;entryDx=0;entryDy=0;" parent="1" source="8" target="13" edge="1">
                    <mxGeometry relative="1" as="geometry">
                        <mxPoint x="420" y="420" as="targetPoint"/>
                    </mxGeometry>
                </mxCell>
                <mxCell id="8" value="You select the voivodeship, which You are interested in( in our case it will be the MAŁOPOLSKIE) and the city KRAKÓW(miasto na prawach powiatu)" style="ellipse;whiteSpace=wrap;html=1;" parent="1" vertex="1">
                    <mxGeometry x="45" y="190" width="245" height="140" as="geometry"/>
                </mxCell>
                <mxCell id="11" style="edgeStyle=none;html=1;entryX=0.5;entryY=0;entryDx=0;entryDy=0;" parent="1" source="10" target="8" edge="1">
                    <mxGeometry relative="1" as="geometry"/>
                </mxCell>
                <mxCell id="10" value="&lt;br&gt;Let's imagine a situation that You would like to find a delegacy in Krakow (district or street)" style="text;html=1;strokeColor=#001DBC;fillColor=#0050ef;spacing=5;spacingTop=-20;whiteSpace=wrap;overflow=hidden;rounded=0;fontColor=#ffffff;" parent="1" vertex="1">
                    <mxGeometry x="70" y="60" width="210" height="70" as="geometry"/>
                </mxCell>
                <mxCell id="14" style="edgeStyle=none;html=1;entryX=0.854;entryY=0.037;entryDx=0;entryDy=0;entryPerimeter=0;" parent="1" source="13" target="15" edge="1">
                    <mxGeometry relative="1" as="geometry">
                        <mxPoint x="310" y="440" as="targetPoint"/>
                    </mxGeometry>
                </mxCell>
                <mxCell id="13" value="Id of MAŁOPOLSKIE voivodeship is 2 and id of KRAKÓW city is 61&amp;nbsp;" style="text;html=1;strokeColor=#3A5431;fillColor=#6d8764;align=center;verticalAlign=middle;whiteSpace=wrap;rounded=0;fontColor=#ffffff;" parent="1" vertex="1">
                    <mxGeometry x="410" y="340" width="180" height="50" as="geometry"/>
                </mxCell>
                <mxCell id="16" style="edgeStyle=none;html=1;entryX=1;entryY=0.5;entryDx=0;entryDy=0;" parent="1" source="15" target="2" edge="1">
                    <mxGeometry relative="1" as="geometry"/>
                </mxCell>
                <mxCell id="15" value="So You will be looking for the record with 1261 in it&amp;nbsp;&amp;nbsp;" style="text;html=1;strokeColor=#3A5431;fillColor=#6d8764;align=center;verticalAlign=middle;whiteSpace=wrap;rounded=0;fontColor=#ffffff;" parent="1" vertex="1">
                    <mxGeometry x="290" y="435" width="180" height="50" as="geometry"/>
                </mxCell>
                <mxCell id="18" style="edgeStyle=none;html=1;entryX=0.661;entryY=1.023;entryDx=0;entryDy=0;entryPerimeter=0;" parent="1" source="17" target="2" edge="1">
                    <mxGeometry relative="1" as="geometry"/>
                </mxCell>
                <mxCell id="19" style="edgeStyle=none;html=1;entryX=0;entryY=0.5;entryDx=0;entryDy=0;" parent="1" source="17" target="3" edge="1">
                    <mxGeometry relative="1" as="geometry"/>
                </mxCell>
                <mxCell id="23" style="edgeStyle=none;html=1;exitX=0.75;exitY=1;exitDx=0;exitDy=0;" parent="1" source="17" edge="1">
                    <mxGeometry relative="1" as="geometry">
                        <mxPoint x="390" y="760" as="targetPoint"/>
                    </mxGeometry>
                </mxCell>
                <mxCell id="17" value="After expansion the SIMC list You can see the possible subdivisions" style="text;html=1;strokeColor=#3A5431;fillColor=#6d8764;align=center;verticalAlign=middle;whiteSpace=wrap;rounded=0;fontColor=#ffffff;" parent="1" vertex="1">
                    <mxGeometry x="85" y="570" width="180" height="50" as="geometry"/>
                </mxCell>
                <mxCell id="24" value="" style="endArrow=classic;html=1;entryX=0;entryY=0.75;entryDx=0;entryDy=0;exitX=1;exitY=0.5;exitDx=0;exitDy=0;" parent="1" source="25" target="4" edge="1">
                    <mxGeometry width="50" height="50" relative="1" as="geometry">
                        <mxPoint x="540" y="740" as="sourcePoint"/>
                        <mxPoint x="590" y="690" as="targetPoint"/>
                    </mxGeometry>
                </mxCell>
                <mxCell id="25" value="Also You already have a list&amp;nbsp; of all streets that are in this delegacy" style="text;html=1;strokeColor=#3A5431;fillColor=#6d8764;align=center;verticalAlign=middle;whiteSpace=wrap;rounded=0;fontColor=#ffffff;" parent="1" vertex="1">
                    <mxGeometry x="390" y="750" width="180" height="50" as="geometry"/>
                </mxCell>
                <mxCell id="28" style="edgeStyle=none;html=1;exitX=0;exitY=0.3333333333333333;exitDx=0;exitDy=0;exitPerimeter=0;entryX=1;entryY=0.5;entryDx=0;entryDy=0;" edge="1" parent="1" source="26" target="10">
                    <mxGeometry relative="1" as="geometry"/>
                </mxCell>
                <mxCell id="26" value="Actor" style="shape=umlActor;verticalLabelPosition=bottom;verticalAlign=top;html=1;outlineConnect=0;" vertex="1" parent="1">
                    <mxGeometry x="360" y="20" width="40" height="120" as="geometry"/>
                </mxCell>
            </root>
        </mxGraphModel>
    </diagram>
</mxfile>